#Comment line ignore any data following # character 
#Hierarchical Translation and Rotation (.htr) file 
[Header]	
#Header keywords are followed by a single value 
FileType HTR		#Single word string
DataType HTRS		#Translation followed by rotation and scale data
FileVersion 1		#integer
NumSegments 64		#integer
NumFrames 3		#integer
DataFrameRate 30		#integer, data frame rate in this file
EulerRotationOrder ZYX
CalibrationUnits mm
RotationUnits Degrees
GlobalAxisofGravity Y
BoneLengthAxis Y
ScaleFactor 1.00
[SegmentNames&Hierarchy]
#CHILD	PARENT
Pinger_Root GLOBAL
Pelvis Pinger_Root
L_Hip Pelvis
R_Hip Pelvis
Rear_Leg01 Pelvis
Spine1 Pelvis
L_Leg01 L_Hip
L_Leg02 L_Leg01
L_Leg03 L_Leg02
L_Foot L_Leg03
L_Toe1_01 L_Foot
L_Toe2_01 L_Foot
L_Toe3_01 L_Foot
planeAlignerLeft L_Foot
L_Toe1_02 L_Toe1_01
L_Toe1_03 L_Toe1_02
L_Toe2_02 L_Toe2_01
L_Toe2_03 L_Toe2_02
L_Toe3_02 L_Toe3_01
L_Toe3_03 L_Toe3_02
planeLockWeightLeft planeAlignerLeft
R_Leg01 R_Hip
R_Leg02 R_Leg01
R_Leg03 R_Leg02
R_Foot R_Leg03
planeAlignerRight R_Foot
R_Toe1_01 R_Foot
R_Toe2_01 R_Foot
R_Toe3_01 R_Foot
planeLockWeightRight planeAlignerRight
R_Toe1_02 R_Toe1_01
R_Toe1_03 R_Toe1_02
R_Toe2_02 R_Toe2_01
R_Toe2_03 R_Toe2_02
R_Toe3_02 R_Toe3_01
R_Toe3_03 R_Toe3_02
Rear_Leg02 Rear_Leg01
Rear_Leg03 Rear_Leg02
Rear_Leg04 Rear_Leg03
Rear_Foot Rear_Leg04
planeAlignerCenter Rear_Foot
Rear_Toe1_01 Rear_Foot
Rear_Toe2_01 Rear_Foot
Rear_Toe3_01 Rear_Foot
planeLockWeightCenter planeAlignerCenter
Rear_Toe1_02 Rear_Toe1_01
Rear_Toe1_03 Rear_Toe1_02
Rear_Toe2_02 Rear_Toe2_01
Rear_Toe2_03 Rear_Toe2_02
Rear_Toe3_02 Rear_Toe3_01
Rear_Toe3_03 Rear_Toe3_02
Back_Bone Spine1
Head Spine1
Motor_Bone Back_Bone
Ping_Mechanism Back_Bone
BN_LookIK Head
bottomMouth Head
L_Mouth01 Head
L_mouthFront Head
mouthGun Head
R_Mouth01 Head
R_mouthFront Head
TopMouth Head
weapon_bone Head
[BasePosition]
#SegmentName Tx, Ty, Tz, Rx, Ry, Rz, BoneLength
Pinger_Root 0.000000 0.000000 0.000000 -90.000000 0.000000 0.000000 10.000000 
Pelvis 0.000000 0.000000 0.000000 0.000000 0.000000 0.000000 10.000000 
L_Hip 0.000000 0.000000 0.000000 0.000000 0.000000 0.000000 10.000000 
R_Hip 0.000000 0.000000 0.000000 0.000000 0.000000 0.000000 10.000000 
Rear_Leg01 0.000000 0.000000 0.000000 0.000000 0.000000 0.000000 10.000000 
Spine1 0.000000 0.000000 0.000000 0.000000 0.000000 0.000000 10.000000 
L_Leg01 0.000000 0.000000 0.000000 0.000000 0.000000 0.000000 10.000000 
L_Leg02 0.000000 0.000000 0.000000 0.000000 0.000000 0.000000 10.000000 
L_Leg03 0.000000 0.000000 0.000000 0.000000 0.000000 0.000000 10.000000 
L_Foot 0.000000 0.000000 0.000000 0.000000 0.000000 0.000000 10.000000 
L_Toe1_01 0.000000 0.000000 0.000000 0.000000 0.000000 0.000000 10.000000 
L_Toe2_01 0.000000 0.000000 0.000000 0.000000 0.000000 0.000000 10.000000 
L_Toe3_01 0.000000 0.000000 0.000000 0.000000 0.000000 0.000000 10.000000 
planeAlignerLeft 0.000000 0.000000 0.000000 0.000000 0.000000 0.000000 10.000000 
L_Toe1_02 0.000000 0.000000 0.000000 0.000000 0.000000 0.000000 10.000000 
L_Toe1_03 0.000000 0.000000 0.000000 0.000000 0.000000 0.000000 10.000000 
L_Toe2_02 0.000000 0.000000 0.000000 0.000000 0.000000 0.000000 10.000000 
L_Toe2_03 0.000000 0.000000 0.000000 0.000000 0.000000 0.000000 10.000000 
L_Toe3_02 0.000000 0.000000 0.000000 0.000000 0.000000 0.000000 10.000000 
L_Toe3_03 0.000000 0.000000 0.000000 0.000000 0.000000 0.000000 10.000000 
planeLockWeightLeft 0.000000 0.000000 0.000000 0.000000 0.000000 0.000000 10.000000 
R_Leg01 0.000000 0.000000 0.000000 0.000000 0.000000 0.000000 10.000000 
R_Leg02 0.000000 0.000000 0.000000 0.000000 0.000000 0.000000 10.000000 
R_Leg03 0.000000 0.000000 0.000000 0.000000 0.000000 0.000000 10.000000 
R_Foot 0.000000 0.000000 0.000000 0.000000 0.000000 0.000000 10.000000 
planeAlignerRight 0.000000 0.000000 0.000000 0.000000 0.000000 0.000000 10.000000 
R_Toe1_01 0.000000 0.000000 0.000000 0.000000 0.000000 0.000000 10.000000 
R_Toe2_01 0.000000 0.000000 0.000000 0.000000 0.000000 0.000000 10.000000 
R_Toe3_01 0.000000 0.000000 0.000000 0.000000 0.000000 0.000000 10.000000 
planeLockWeightRight 0.000000 0.000000 0.000000 0.000000 0.000000 0.000000 10.000000 
R_Toe1_02 0.000000 0.000000 0.000000 0.000000 0.000000 0.000000 10.000000 
R_Toe1_03 0.000000 0.000000 0.000000 0.000000 0.000000 0.000000 10.000000 
R_Toe2_02 0.000000 0.000000 0.000000 0.000000 0.000000 0.000000 10.000000 
R_Toe2_03 0.000000 0.000000 0.000000 0.000000 0.000000 0.000000 10.000000 
R_Toe3_02 0.000000 0.000000 0.000000 0.000000 0.000000 0.000000 10.000000 
R_Toe3_03 0.000000 0.000000 0.000000 0.000000 0.000000 0.000000 10.000000 
Rear_Leg02 0.000000 0.000000 0.000000 0.000000 0.000000 0.000000 10.000000 
Rear_Leg03 0.000000 0.000000 0.000000 0.000000 0.000000 0.000000 10.000000 
Rear_Leg04 0.000000 0.000000 0.000000 0.000000 0.000000 0.000000 10.000000 
Rear_Foot 0.000000 0.000000 0.000000 0.000000 0.000000 0.000000 10.000000 
planeAlignerCenter 0.000000 0.000000 0.000000 0.000000 0.000000 0.000000 10.000000 
Rear_Toe1_01 0.000000 0.000000 0.000000 0.000000 0.000000 0.000000 10.000000 
Rear_Toe2_01 0.000000 0.000000 0.000000 0.000000 0.000000 0.000000 10.000000 
Rear_Toe3_01 0.000000 0.000000 0.000000 0.000000 0.000000 0.000000 10.000000 
planeLockWeightCenter 0.000000 0.000000 0.000000 0.000000 0.000000 0.000000 10.000000 
Rear_Toe1_02 0.000000 0.000000 0.000000 0.000000 0.000000 0.000000 10.000000 
Rear_Toe1_03 0.000000 0.000000 0.000000 0.000000 0.000000 0.000000 10.000000 
Rear_Toe2_02 0.000000 0.000000 0.000000 0.000000 0.000000 0.000000 10.000000 
Rear_Toe2_03 0.000000 0.000000 0.000000 0.000000 0.000000 0.000000 10.000000 
Rear_Toe3_02 0.000000 0.000000 0.000000 0.000000 0.000000 0.000000 10.000000 
Rear_Toe3_03 0.000000 0.000000 0.000000 0.000000 0.000000 0.000000 10.000000 
Back_Bone 0.000000 0.000000 0.000000 0.000000 0.000000 0.000000 10.000000 
Head 0.000000 0.000000 0.000000 0.000000 0.000000 0.000000 10.000000 
Motor_Bone 0.000000 0.000000 0.000000 0.000000 0.000000 0.000000 10.000000 
Ping_Mechanism 0.000000 0.000000 0.000000 0.000000 0.000000 0.000000 10.000000 
BN_LookIK 0.000000 0.000000 0.000000 0.000000 0.000000 0.000000 10.000000 
bottomMouth 0.000000 0.000000 0.000000 0.000000 0.000000 0.000000 10.000000 
L_Mouth01 0.000000 0.000000 0.000000 0.000000 0.000000 0.000000 10.000000 
L_mouthFront 0.000000 0.000000 0.000000 0.000000 0.000000 0.000000 10.000000 
mouthGun 0.000000 0.000000 0.000000 0.000000 0.000000 0.000000 10.000000 
R_Mouth01 0.000000 0.000000 0.000000 0.000000 0.000000 0.000000 10.000000 
R_mouthFront 0.000000 0.000000 0.000000 0.000000 0.000000 0.000000 10.000000 
TopMouth 0.000000 0.000000 0.000000 0.000000 0.000000 0.000000 10.000000 
weapon_bone 0.000000 0.000000 0.000000 0.000000 0.000000 0.000000 10.000000 
#Beginning of Data. Separated by tabs
#Fr	Tx	Ty	Tz	Rx	Ry	Rz	SF
[Pinger_Root]
105 0.000000 0.000000 0.000000 -0.000069 0.000029 44.999935 0.000000
106 0.000000 0.000000 0.000000 -0.000069 0.000029 44.999935 0.000000
107 0.000000 0.000000 0.000000 -0.000069 0.000029 44.999935 0.000000
[Pelvis]
105 260.804474 839.085022 4416.064453 -100.278656 -85.818626 93.276566 4502.633301
106 257.600586 842.288940 4415.350098 -99.972923 -85.277443 92.510147 4502.346680
107 254.396683 845.492859 4414.635742 -99.994965 -85.265419 92.040871 4502.064453
[L_Hip]
105 5.766392 125.831482 872.656799 160.158691 -45.484905 122.312202 881.701050
106 5.766392 125.831482 872.656799 160.158691 -45.484894 122.312202 881.701050
107 5.766392 125.831482 872.656799 160.158691 -45.484913 122.312202 881.701050
[R_Hip]
105 5.765438 125.836372 -872.654907 38.087841 49.812687 125.703735 881.699829
106 5.765438 125.836372 -872.654907 38.087841 49.812687 125.703735 881.699829
107 5.765438 125.836372 -872.654907 38.087841 49.812687 125.703735 881.699829
[Rear_Leg01]
105 -192.298416 -925.602966 -0.001907 168.451279 -9.305773 -161.585724 945.367432
106 -192.298416 -925.602966 -0.001907 168.031326 -9.041158 -162.105438 945.367432
107 -192.298416 -925.602966 -0.001907 167.590820 -8.684325 -162.022919 945.367432
[Spine1]
105 290.604584 5.007505 0.000477 7.263816 -0.395350 19.295979 290.647736
106 290.604584 5.007505 0.000477 7.267511 -1.472682 19.158691 290.647736
107 290.604584 5.007505 0.000477 7.272545 -2.196270 19.069397 290.647736
[L_Leg01]
105 761.932007 -0.002384 -0.069261 15.984519 -22.990177 -7.758568 761.932068
106 761.932007 -0.002384 -0.069261 15.291205 -22.744987 -6.725069 761.932068
107 761.932007 -0.002384 -0.069261 14.967090 -22.251915 -6.414261 761.932068
[L_Leg02]
105 1441.140503 -0.000954 -0.000715 2.241919 -0.174687 -125.631508 1441.140503
106 1441.140503 -0.000954 -0.000715 2.318060 -0.176598 -126.342712 1441.140503
107 1441.140503 -0.000954 -0.000715 2.365200 -0.179741 -126.790482 1441.140503
[L_Leg03]
105 1686.963989 -0.000715 -0.000954 -0.027441 0.010361 117.678299 1686.963989
106 1686.963989 -0.000715 -0.000954 -0.027436 0.010375 117.737206 1686.963989
107 1686.963989 -0.000715 -0.000954 -0.027430 0.010390 117.796135 1686.963989
[L_Foot]
105 3041.570068 -30.715107 11.297464 10.767063 12.998611 51.106430 3041.746094
106 3041.570068 -30.715107 11.297464 10.686985 12.989830 51.394447 3041.746094
107 3041.570068 -30.715107 11.297464 10.606870 12.981445 51.682491 3041.746094
[L_Toe1_01]
105 -188.216690 -224.732346 -21.137953 93.719086 -6.862507 -171.970444 293.899567
106 -188.216690 -224.732346 -21.137953 93.719086 -6.862507 -171.970444 293.899567
107 -188.216690 -224.732346 -21.137953 93.719086 -6.862507 -171.970444 293.899567
[L_Toe2_01]
105 200.746536 -219.926590 148.838394 -90.024002 -26.311708 -52.677631 332.896027
106 200.746536 -219.926590 148.838394 -90.023987 -26.311703 -52.677628 332.896027
107 200.746536 -219.926590 148.838394 -90.023987 -26.311703 -52.677635 332.896027
[L_Toe3_01]
105 188.832520 -219.859131 -191.078659 -99.791023 13.840943 -67.685593 347.140900
106 188.832520 -219.859131 -191.078659 -99.790909 13.840857 -67.685074 347.140900
107 188.832520 -219.859131 -191.078659 -99.790779 13.840779 -67.684547 347.140900
[planeAlignerLeft]
105 0.812531 -811.448792 -0.314951 0.000000 -90.000000 -90.001900 811.449280
106 0.812531 -811.448792 -0.314951 0.000000 -90.000000 -90.001900 811.449280
107 0.812531 -811.448792 -0.314951 0.000000 -90.000000 -90.001900 811.449280
[L_Toe1_02]
105 413.761139 0.000477 0.000000 0.001384 -25.960255 0.001384 413.761139
106 413.761139 0.000477 0.000000 0.001384 -25.962450 0.001384 413.761139
107 413.761139 0.000477 0.000000 0.001384 -25.964651 0.001384 413.761139
[L_Toe1_03]
105 464.317322 0.000358 -0.000089 0.003728 53.305359 0.003728 464.317322
106 464.317322 0.000358 -0.000089 0.003731 53.332230 0.003731 464.317322
107 464.317322 0.000358 -0.000089 0.003734 53.359097 0.003734 464.317322
[L_Toe2_02]
105 342.235809 -0.000477 0.000238 0.001188 -72.351891 0.001188 342.235809
106 342.235809 -0.000477 0.000238 0.001188 -72.368599 0.001188 342.235809
107 342.235809 -0.000477 0.000238 0.001188 -72.385315 0.001188 342.235809
[L_Toe2_03]
105 420.210846 -0.000715 0.000000 0.029090 85.375565 0.029090 420.210846
106 420.210846 -0.000715 0.000000 0.029090 85.375511 0.029090 420.210846
107 420.210846 -0.000715 0.000000 0.029090 85.375511 0.029090 420.210846
[L_Toe3_02]
105 329.270111 0.000954 0.000000 0.001178 -80.474304 0.001178 329.270111
106 329.270111 0.000954 0.000000 0.001178 -80.474571 0.001178 329.270111
107 329.270111 0.000954 0.000000 0.001178 -80.474823 0.001178 329.270111
[L_Toe3_03]
105 439.137451 -0.001907 0.000954 -179.995956 78.617531 -179.992447 439.137451
106 439.137451 -0.001907 0.000954 -179.995956 78.617050 -179.992447 439.137451
107 439.137451 -0.001907 0.000954 -179.995956 78.616554 -179.992447 439.137451
[planeLockWeightLeft]
105 -0.000954 0.000238 -0.000305 -0.011826 -0.004376 0.005620 0.001029
106 -0.000954 0.000238 -0.000305 -0.011826 -0.004376 0.005620 0.001029
107 -0.000954 0.000238 -0.000305 -0.011826 -0.004376 0.005620 0.001029
[R_Leg01]
105 761.455627 -0.001907 -0.000358 119.463646 -0.450587 37.508617 761.455688
106 761.455627 -0.001907 -0.000358 119.293915 -1.392242 37.177914 761.455688
107 761.455627 -0.001907 -0.000358 118.866669 -1.906301 37.107372 761.455688
[R_Leg02]
105 1441.140625 0.000000 -0.000238 -1.556095 -0.298020 -124.948364 1441.140625
106 1441.140625 0.000000 -0.000238 -1.569475 -0.304115 -125.330215 1441.140625
107 1441.140625 0.000000 -0.000238 -1.569534 -0.303810 -125.307938 1441.140625
[R_Leg03]
105 1686.963989 0.000954 0.001431 0.081699 -0.047120 132.891693 1686.963989
106 1686.963989 0.000954 0.001431 0.081681 -0.047152 132.936188 1686.963989
107 1686.963989 0.000954 0.001431 0.081662 -0.047184 132.980698 1686.963989
[R_Foot]
105 3041.560059 -30.531288 -11.204481 1.716736 -24.807550 66.466339 3041.734131
106 3041.560059 -30.531288 -11.204481 1.715085 -24.803059 66.444870 3041.734131
107 3041.560059 -30.531288 -11.204481 1.717142 -24.806953 66.331078 3041.734131
[planeAlignerRight]
105 -0.635147 -812.270569 -0.364304 0.000000 -89.960434 -90.005180 812.270874
106 -0.635147 -812.270569 -0.364304 0.000000 -89.960434 -90.005180 812.270874
107 -0.635147 -812.270569 -0.364304 0.000000 -89.960434 -90.005180 812.270874
[R_Toe1_01]
105 -188.383347 -224.864899 21.052242 76.761665 -0.404313 -172.782150 294.101532
106 -188.383347 -224.864899 21.052242 76.761757 -0.404614 -172.780090 294.101532
107 -188.383347 -224.864899 21.052242 76.761826 -0.404914 -172.778030 294.101532
[R_Toe2_01]
105 200.637817 -220.002121 -148.787384 -91.726448 32.888508 -59.138416 332.857574
106 200.637817 -220.002121 -148.787384 -91.727150 32.887894 -59.140232 332.857574
107 200.637817 -220.002121 -148.787384 -91.727859 32.887291 -59.142071 332.857574
[R_Toe3_01]
105 188.606735 -220.092957 191.126343 -73.229004 -8.451587 -73.754539 347.192566
106 188.606735 -220.092957 191.126343 -73.228874 -8.451806 -73.754608 347.192566
107 188.606735 -220.092957 191.126343 -73.228752 -8.452029 -73.754677 347.192566
[planeLockWeightRight]
105 -0.000477 0.000000 0.000000 -0.011823 -0.004379 -0.000027 0.000477
106 -0.000477 0.000000 0.000000 -0.011823 -0.004379 -0.000027 0.000477
107 -0.000477 0.000000 0.000000 -0.011823 -0.004379 -0.000027 0.000477
[R_Toe1_02]
105 413.762085 0.000477 -0.000119 0.001394 -24.663818 0.001394 413.762085
106 413.762085 0.000477 -0.000119 0.001394 -24.663639 0.001394 413.762085
107 413.762085 0.000477 -0.000119 0.001394 -24.663456 0.001394 413.762085
[R_Toe1_03]
105 464.317810 0.000000 0.001088 0.006628 69.602699 0.006628 464.317810
106 464.317810 0.000000 0.001088 0.006628 69.602303 0.006628 464.317810
107 464.317810 0.000000 0.001088 0.006628 69.601898 0.006628 464.317810
[R_Toe2_02]
105 342.234741 -0.000954 0.000238 0.001197 -67.203453 0.001197 342.234741
106 342.234741 -0.000954 0.000238 0.001197 -67.204178 0.001197 342.234741
107 342.234741 -0.000954 0.000238 0.001197 -67.204918 0.001197 342.234741
[R_Toe2_03]
105 420.210846 0.000715 -0.000268 0.008219 73.581207 0.008219 420.210846
106 420.210846 0.000715 -0.000268 0.008220 73.582741 0.008220 420.210846
107 420.210846 0.000715 -0.000268 0.008221 73.584282 0.008221 420.210846
[R_Toe3_02]
105 329.270355 -0.000477 -0.000954 0.001184 -74.514359 0.001184 329.270355
106 329.270355 -0.000477 -0.000954 0.001184 -74.514534 0.001184 329.270355
107 329.270355 -0.000477 -0.000954 0.001184 -74.514755 0.001184 329.270355
[R_Toe3_03]
105 439.137939 0.000238 0.001431 -0.011577 83.293259 -0.008074 439.137939
106 439.137939 0.000238 0.001431 -0.011578 83.293785 -0.008075 439.137939
107 439.137939 0.000238 0.001431 -0.011579 83.294395 -0.008076 439.137939
[Rear_Leg02]
105 1162.777710 -0.029802 0.005960 1.025506 -2.800837 -131.825882 1162.777710
106 1162.777710 -0.029802 0.005960 1.011398 -2.806072 -131.516449 1162.777710
107 1162.777710 -0.029802 0.005960 1.009155 -2.806901 -131.469360 1162.777710
[Rear_Leg03]
105 607.192505 -0.013351 -0.073195 0.010532 -0.005024 67.357582 607.192505
106 607.192505 -0.013351 -0.073195 0.010533 -0.005021 67.329514 607.192505
107 607.192505 -0.013351 -0.073195 0.010534 -0.005018 67.301445 607.192505
[Rear_Leg04]
105 995.874512 -0.020504 -0.011921 -0.041120 -0.018894 64.434723 995.874573
106 995.874512 -0.020504 -0.011921 -0.042498 -0.018059 64.313950 995.874573
107 995.874512 -0.020504 -0.011921 -0.043877 -0.017227 64.193169 995.874573
[Rear_Foot]
105 3096.176270 -0.067472 -0.041425 -169.229721 75.909279 18.828201 3096.176270
106 3096.176270 -0.067472 -0.041425 -169.141388 76.030060 18.958622 3096.176270
107 3096.176270 -0.067472 -0.041425 -169.051147 76.150726 19.090914 3096.176270
[planeAlignerCenter]
105 0.350077 0.966311 -838.790894 0.000009 0.000003 -179.999985 838.791565
106 0.350077 0.966311 -838.790894 0.000009 0.000003 -179.999985 838.791565
107 0.350077 0.966311 -838.790894 0.000009 0.000003 -179.999985 838.791565
[Rear_Toe1_01]
105 0.653352 83.966492 -371.173737 0.294515 41.908028 90.410454 380.553192
106 0.653352 83.966492 -371.173737 0.294519 41.907970 90.410461 380.553192
107 0.653352 83.966492 -371.173737 0.294531 41.907917 90.410507 380.553192
[Rear_Toe2_01]
105 178.200760 -294.826019 -362.060547 -7.199964 34.403984 -66.271980 499.765686
106 178.200760 -294.826019 -362.060547 -7.200003 34.403969 -66.271996 499.765686
107 178.200760 -294.826019 -362.060547 -7.200034 34.403938 -66.271988 499.765686
[Rear_Toe3_01]
105 -153.359680 -308.780914 -362.060852 3.290201 33.512215 -112.542046 499.952881
106 -153.359680 -308.780914 -362.060852 3.290212 33.512165 -112.542053 499.952881
107 -153.359680 -308.780914 -362.060852 3.290220 33.512112 -112.542061 499.952881
[planeLockWeightCenter]
105 -0.000062 0.000238 0.000000 -0.011814 -0.004373 -0.000015 0.000246
106 -0.000062 0.000238 0.000000 -0.011814 -0.004373 -0.000015 0.000246
107 -0.000062 0.000238 0.000000 -0.011814 -0.004373 -0.000015 0.000246
[Rear_Toe1_02]
105 379.707825 0.194073 0.000477 -0.000242 -31.680914 0.006934 379.707855
106 379.707825 0.194073 0.000477 -0.000242 -31.680956 0.006934 379.707855
107 379.707825 0.194073 0.000477 -0.000242 -31.681004 0.006934 379.707855
[Rear_Toe1_03]
105 500.129700 0.165701 0.000119 -0.000102 51.915894 0.007296 500.129761
106 500.129700 0.165701 0.000119 -0.000102 51.916008 0.007296 500.129761
107 500.129700 0.165701 0.000119 -0.000102 51.916149 0.007296 500.129761
[Rear_Toe2_02]
105 340.494507 0.000238 -0.000954 0.001192 -69.859421 0.001192 340.494507
106 340.494507 0.000238 -0.000954 0.001192 -69.859459 0.001192 340.494507
107 340.494507 0.000238 -0.000954 0.001192 -69.859528 0.001192 340.494507
[Rear_Toe2_03]
105 433.103577 0.000000 0.000238 0.006697 69.815239 0.006697 433.103546
106 433.103577 0.000000 0.000238 0.006697 69.815262 0.006697 433.103546
107 433.103577 0.000000 0.000238 0.006697 69.815315 0.006697 433.103546
[Rear_Toe3_02]
105 340.494141 -0.000358 -0.000477 0.008290 -67.279526 -0.009462 340.494171
106 340.494141 -0.000358 -0.000477 0.008290 -67.279564 -0.009462 340.494171
107 340.494141 -0.000358 -0.000477 0.008290 -67.279610 -0.009462 340.494171
[Rear_Toe3_03]
105 433.103577 0.001431 -0.000238 -0.000972 65.958984 -0.004547 433.103546
106 433.103577 0.001431 -0.000238 -0.000972 65.959007 -0.004547 433.103546
107 433.103577 0.001431 -0.000238 -0.000972 65.958984 -0.004547 433.103546
[Back_Bone]
105 1312.175781 -701.934692 0.000954 0.000023 -0.000007 -85.606667 1488.125488
106 1312.175781 -701.934692 0.000954 0.000023 -0.000007 -85.606667 1488.125488
107 1312.175781 -701.934692 0.000954 0.000023 -0.000007 -85.606667 1488.125488
[Head]
105 1406.159424 809.709290 0.001431 0.000625 -1.475624 7.768028 1622.625488
106 1406.159424 809.709290 0.001431 0.000625 -1.475623 7.768025 1622.625488
107 1406.159424 809.709290 0.001431 0.000625 -1.475623 7.768025 1622.625488
[Motor_Bone]
105 1158.364380 -417.834747 0.000477 -0.109650 0.069028 -105.915703 1231.419434
106 1158.364380 -417.834747 0.000477 -0.109056 0.069322 -105.915710 1231.419434
107 1158.364380 -417.834747 0.000477 -0.108462 0.069617 -105.915703 1231.419434
[Ping_Mechanism]
105 1233.748901 -441.764648 -0.394540 0.000103 -0.000053 82.120995 1310.455078
106 1233.748901 -441.764801 -0.391397 0.000103 -0.000053 82.120995 1310.455078
107 1233.748901 -441.764954 -0.388255 0.000103 -0.000053 82.120995 1310.455078
[BN_LookIK]
105 193.241119 1380.371704 -0.002861 0.000000 89.965736 -31.038179 1393.832153
106 193.241119 1380.371704 -0.002861 0.000000 89.965736 -31.038179 1393.832153
107 193.241119 1380.371704 -0.002861 0.000000 89.965736 -31.038179 1393.832153
[bottomMouth]
105 -435.092926 615.759399 -0.000954 -0.000022 0.000016 73.527184 753.966492
106 -435.092926 615.759399 -0.000954 -0.000022 0.000016 73.527184 753.966492
107 -435.092926 615.759399 -0.000954 -0.000022 0.000016 73.527184 753.966492
[L_Mouth01]
105 554.440979 7.658243 838.222046 150.204178 23.759130 109.605339 1005.027161
106 554.440979 7.658243 838.222046 150.204178 23.759130 109.605339 1005.027161
107 554.440979 7.658243 838.222046 150.204178 23.759130 109.605339 1005.027161
[L_mouthFront]
105 551.629089 934.514771 339.150421 0.000081 2.804060 79.119301 1136.941284
106 551.629089 934.514771 339.150421 0.000081 2.804060 79.119301 1136.941284
107 551.629089 934.514771 339.150421 0.000081 2.804060 79.119301 1136.941284
[mouthGun]
105 55.332661 1627.420898 0.000000 0.000023 0.000009 -11.038128 1628.361328
106 55.332661 1627.420898 0.000000 0.000023 0.000009 -11.038128 1628.361328
107 55.332661 1627.420898 0.000000 0.000023 0.000009 -11.038128 1628.361328
[R_Mouth01]
105 554.442383 7.659197 -838.223938 29.795891 -23.759109 109.605331 1005.029541
106 554.442383 7.659197 -838.223938 29.795891 -23.759109 109.605331 1005.029541
107 554.442383 7.659197 -838.223938 29.795891 -23.759109 109.605331 1005.029541
[R_mouthFront]
105 551.629089 934.514282 -339.151367 0.000029 -2.803930 79.119133 1136.941162
106 551.629089 934.514282 -339.151367 0.000029 -2.803930 79.119133 1136.941162
107 551.629089 934.514282 -339.151367 0.000029 -2.803930 79.119133 1136.941162
[TopMouth]
105 461.269867 -56.106091 -0.008583 -0.000059 -0.000268 92.025169 464.669525
106 461.269867 -56.106091 -0.008583 -0.000059 -0.000268 92.025169 464.669525
107 461.269867 -56.106091 -0.008583 -0.000059 -0.000268 92.025169 464.669525
[weapon_bone]
105 -987.239868 1448.372803 0.001431 0.000000 89.965736 -31.038221 1752.833740
106 -987.239868 1448.372803 0.001431 0.000000 89.965736 -31.038221 1752.833740
107 -987.239868 1448.372803 0.001431 0.000000 89.965736 -31.038221 1752.833740
